<svg width="85" height="23" viewBox="0 0 85 23" fill="none" xmlns="http://www.w3.org/2000/svg">
<path d="M48.6978 11.0102V20.1038H50.1808H51.6639L51.6728 19.1625L51.686 18.2212L51.934 18.5321C52.5582 19.3328 53.5454 19.8525 54.7407 20.0186C55.2011 20.0782 56.184 20.0697 56.6886 19.9973C57.9725 19.8099 58.9199 19.3541 59.8097 18.4895C60.859 17.4673 61.4345 16.2662 61.6293 14.6775C61.6957 14.1323 61.6558 12.7523 61.5629 12.2454C61.16 10.1201 59.9027 8.51431 58.1053 7.84135C57.4368 7.5858 56.91 7.49635 55.998 7.46654C55.1303 7.44098 54.7186 7.47931 54.1032 7.64969C53.1514 7.91802 52.1907 8.51857 51.7967 9.09783C51.7082 9.22135 51.7082 9.1958 51.7082 5.56691V1.91672H50.203H48.6978V11.0102ZM56.0688 10.0988C57.2287 10.3628 58.092 11.2232 58.4462 12.4584C58.5303 12.7565 58.5436 12.9099 58.5436 13.6936C58.548 14.4901 58.5347 14.6306 58.4462 14.9671C58.1053 16.2534 57.18 17.1776 55.9582 17.4417C55.48 17.5439 54.7097 17.5354 54.2537 17.4247C52.9566 17.101 52.0668 16.1299 51.7436 14.6732C51.6595 14.2771 51.6728 13.1314 51.7657 12.6926C51.9384 11.926 52.2571 11.3552 52.8061 10.8569C53.178 10.5162 53.6605 10.2436 54.1209 10.1158C54.6743 9.9582 55.4402 9.95394 56.0688 10.0988Z" fill="black"/>
<path d="M6.08724 7.45795C4.7724 7.6411 3.60365 8.22462 2.62969 9.17869C1.42109 10.3713 0.796875 11.9217 0.796875 13.7574C0.796875 15.5633 1.40339 17.0754 2.60755 18.2807C3.79401 19.4733 5.14427 20.0568 6.88411 20.1292C8.03958 20.1804 9.11094 19.9844 9.97422 19.567C10.8729 19.1283 11.8159 18.2381 12.3648 17.3139C12.626 16.8709 12.8695 16.2831 12.812 16.232C12.75 16.1724 10.3151 15.3205 10.2841 15.3461C10.2708 15.3589 10.1956 15.5165 10.1159 15.6911C9.70859 16.5898 8.90286 17.2628 8.00859 17.4459C7.52604 17.5439 6.74687 17.5354 6.31745 17.4246C5.72865 17.2755 5.30365 17.0328 4.82552 16.5685C4.46693 16.2278 4.36953 16.1 4.19245 15.7592C3.82943 15.0565 3.67448 14.1833 3.76302 13.2931C3.84714 12.4413 4.06849 11.8407 4.5112 11.2785C4.90521 10.7802 5.40547 10.4309 6.04297 10.2094C6.34844 10.0987 6.47682 10.0817 6.99479 10.0646C7.70312 10.0391 8.08828 10.103 8.56641 10.3202C9.15964 10.5928 9.73516 11.2402 9.9875 11.9217C10.0539 12.1005 10.1159 12.2496 10.1203 12.2581C10.1336 12.2794 12.6747 11.3765 12.719 11.3339C12.7677 11.287 12.5065 10.6013 12.294 10.2094C11.9089 9.50665 11.1784 8.73147 10.4922 8.28851C9.86354 7.87962 9.07109 7.59425 8.23437 7.47499C7.77396 7.40684 6.52552 7.39832 6.08724 7.45795Z" fill="black"/>
<path d="M18.8903 7.49622C17.9163 7.66659 16.9733 8.05419 16.234 8.58659C15.7559 8.93159 15.0963 9.6003 14.7775 10.0603C13.9497 11.2571 13.5822 12.7181 13.715 14.2812C13.7991 15.2821 14.0249 16.0616 14.4366 16.8283C15.0299 17.9144 16.1499 18.9579 17.27 19.4605C19.1338 20.3038 21.6262 20.2442 23.3926 19.3199C24.4507 18.7662 25.4645 17.7525 26.0046 16.7047C26.527 15.7038 26.7705 14.3621 26.6598 13.127C26.5181 11.5212 25.9913 10.3499 24.9332 9.28085C24.0301 8.36937 22.9853 7.80289 21.7015 7.53456C21.0595 7.40252 19.5543 7.38122 18.8903 7.49622ZM20.8869 10.0347C22.7684 10.4053 23.8663 12.0664 23.6494 14.2131C23.5874 14.8264 23.4723 15.2481 23.2421 15.6953C22.9101 16.3384 22.3832 16.8453 21.7148 17.1647C21.1569 17.4288 20.8869 17.4842 20.1431 17.4799C19.5676 17.4799 19.4658 17.4671 19.147 17.3649C18.1244 17.0327 17.3364 16.3171 16.9689 15.3716C16.7431 14.7966 16.6767 14.3238 16.7033 13.5231C16.7343 12.5775 16.9202 11.9557 17.3585 11.3466C17.8233 10.6949 18.722 10.1455 19.5366 10.0134C19.9129 9.95381 20.5239 9.96233 20.8869 10.0347Z" fill="black"/>
<path d="M27.0938 13.736V20.061H28.5503H30.0112L30.0289 16.4918C30.0422 13.029 30.0466 12.914 30.1396 12.5221C30.1971 12.2751 30.3122 11.9642 30.4318 11.7299C30.7771 11.0612 31.3659 10.6225 32.207 10.4096C32.4594 10.3414 32.6807 10.3286 33.4156 10.3286H34.3099V8.89752V7.46641L34.1461 7.43659C33.8406 7.38974 32.9464 7.41104 32.6409 7.47492C31.5076 7.70492 30.5557 8.3353 30.113 9.14455L29.9935 9.3703L29.9714 8.39918L29.9492 7.43233L28.5237 7.41955L27.0938 7.41104V13.736Z" fill="black"/>
<path d="M40.3973 7.47933C39.0869 7.70507 37.9712 8.25451 36.9973 9.15747C36.0455 10.0349 35.4611 11.0358 35.1955 12.2582C35.0715 12.8077 35.0317 13.881 35.1069 14.5241C35.3061 16.2832 36.1119 17.6717 37.5152 18.6982C38.6973 19.5543 39.9501 19.976 41.5262 20.0484C43.2085 20.1208 44.696 19.729 45.8692 18.9027C46.728 18.2978 47.4541 17.4162 47.7861 16.5643L47.8968 16.2832L46.5952 15.9127C45.8824 15.7125 45.2804 15.5464 45.2582 15.5464C45.2361 15.5464 45.121 15.7338 45.0014 15.9595C44.6207 16.7006 44.0054 17.1947 43.1421 17.446C42.7702 17.5567 42.6905 17.5653 41.9025 17.5653C41.0613 17.5695 41.0613 17.5695 40.6408 17.429C39.4455 17.0286 38.6132 16.2151 38.3343 15.1715C38.29 14.9969 38.2501 14.7669 38.2501 14.6647V14.4815H43.1199H47.9897L48.0074 14.3836C48.1093 13.9193 48.0517 12.7267 47.8968 11.9941C47.6444 10.7973 47.1397 9.86451 46.3119 9.06803C45.3777 8.16933 44.2975 7.67951 42.7879 7.47507C42.2124 7.39414 40.871 7.3984 40.3973 7.47933ZM42.7126 9.9071C42.934 9.95821 43.2439 10.069 43.3988 10.1456C43.7619 10.3288 44.3374 10.8825 44.5277 11.2317C44.6783 11.5043 44.8465 12.0623 44.8465 12.2753V12.3945H41.5926H38.3387V12.2753C38.3387 12.0793 38.4626 11.7088 38.6309 11.3723C38.7593 11.1253 38.8876 10.9634 39.1975 10.6695C39.6358 10.2478 39.928 10.0775 40.4504 9.92414C41.1056 9.73247 41.9689 9.72821 42.7126 9.9071Z" fill="black"/>
<path d="M62.4084 7.44098C62.3907 7.45376 62.3774 10.3117 62.3774 13.7873V20.1038H63.8384H65.2993V13.7575V7.41117H63.8694C63.0813 7.41117 62.4217 7.42394 62.4084 7.44098Z" fill="black"/>
<path d="M66.074 7.46654C66.0607 7.49635 66.0563 8.06283 66.0607 8.73154L66.074 9.94543L70.1824 9.96672L74.2951 9.98802L70.2399 13.8001L66.1891 17.6121L66.1847 18.8558V20.1038H72.6261H79.0675V18.8473V17.5908L74.9548 17.5823L70.8464 17.5695L74.9548 13.7149L79.0631 9.86024L79.0542 8.64635L79.0454 7.43246L72.5686 7.41969C67.3756 7.41117 66.0873 7.41969 66.074 7.46654Z" fill="black"/>
</svg>
